<?xml version="1.0" encoding="UTF-8" standalone="no"?>
<!-- Created with Inkscape (http://www.inkscape.org/) -->

<svg
   width="4082.5134"
   height="7257.3164"
   viewBox="0 0 1080.165 1920.165"
   version="1.1"
   id="svg1"
   inkscape:version="1.4 (86a8ad7, 2024-10-11)"
   sodipodi:docname="lamiacasaalmare_sfondo.svg"
   xmlns:inkscape="http://www.inkscape.org/namespaces/inkscape"
   xmlns:sodipodi="http://sodipodi.sourceforge.net/DTD/sodipodi-0.dtd"
   xmlns="http://www.w3.org/2000/svg"
   xmlns:svg="http://www.w3.org/2000/svg">
  <sodipodi:namedview
     id="namedview1"
     pagecolor="#505050"
     bordercolor="#eeeeee"
     borderopacity="1"
     inkscape:showpageshadow="0"
     inkscape:pageopacity="0"
     inkscape:pagecheckerboard="0"
     inkscape:deskcolor="#505050"
     inkscape:document-units="mm"
     showguides="true"
     inkscape:zoom="0.125"
     inkscape:cx="4332"
     inkscape:cy="3552"
     inkscape:window-width="2880"
     inkscape:window-height="1541"
     inkscape:window-x="2869"
     inkscape:window-y="-11"
     inkscape:window-maximized="1"
     inkscape:current-layer="layer1" />
  <defs
     id="defs1" />
  <g
     inkscape:label="Livello 1"
     inkscape:groupmode="layer"
     id="layer1"
     transform="translate(2.9929157,2.7283354)">
    <rect
       style="fill:#e7cf9c;fill-opacity:1;stroke:#000000;stroke-width:0.165"
       id="rect1"
       width="1080"
       height="1920"
       x="-1077.0896"
       y="-2.6458354"
       transform="scale(-1,1)" />
    <g
       id="g174">
      <path
         style="fill:#000000;fill-opacity:0;stroke:#40940f;stroke-width:1.828;stroke-dasharray:none;stroke-opacity:0"
         d="M -5.1200196,308.60626 C 54.229423,235.43865 188.49151,270.51105 278.61545,324.1748 c 74.23328,44.20176 172.79993,33.20243 213.86611,11.4493 41.43747,-21.9498 184.33473,-102.8208 307.33753,-9.16787 164.90339,125.55557 294.16221,-18.15369 294.16221,-18.15369"
         id="path12"
         sodipodi:nodetypes="csssc" />
      <path
         style="fill:#000000;fill-opacity:0;stroke:#40940f;stroke-width:1.828;stroke-dasharray:none;stroke-opacity:0"
         d="m -15.123675,175.09339 c 59.349443,-73.16761 193.611525,-38.09521 283.735465,15.56854 74.23328,44.20176 172.79993,33.20243 213.86611,11.4493 41.43747,-21.9498 184.33473,-102.820804 307.33753,-9.16787 164.90339,125.55557 294.16227,-18.15369 294.16227,-18.15369"
         id="path18"
         sodipodi:nodetypes="csssc" />
      <path
         style="fill:#000000;fill-opacity:0;stroke:#000000;stroke-width:1.42800003;stroke-dasharray:none;stroke-opacity:0"
         d="M -19.613803,41.886258 C 39.73564,-31.281352 173.99772,3.7910476 264.12166,57.454798 c 74.23328,44.201762 172.79993,33.20243 213.86611,11.4493 41.43747,-21.9498 184.33473,-102.820804 307.33753,-9.16787 164.90339,125.555572 294.1623,-18.15369 294.1623,-18.15369"
         id="path19"
         sodipodi:nodetypes="csssc" />
      <path
         style="fill:#000000;fill-opacity:0;stroke:#40940f;stroke-width:1.828;stroke-dasharray:none;stroke-opacity:0"
         d="M -5.1200196,308.60626 C 54.229423,235.43865 188.49151,270.51105 278.61545,324.1748 c 74.23328,44.20176 172.79993,33.20243 213.86611,11.4493 41.43747,-21.9498 184.33473,-102.8208 307.33753,-9.16787 164.90339,125.55557 294.16221,-18.15369 294.16221,-18.15369"
         id="path27"
         sodipodi:nodetypes="csssc" />
      <path
         style="fill:#000000;fill-opacity:0;stroke:#40940f;stroke-width:1.828;stroke-dasharray:none;stroke-opacity:0"
         d="m -15.123675,175.09339 c 59.349443,-73.16761 193.611525,-38.09521 283.735465,15.56854 74.23328,44.20176 172.79993,33.20243 213.86611,11.4493 41.43747,-21.9498 184.33473,-102.820804 307.33753,-9.16787 164.90339,125.55557 294.16227,-18.15369 294.16227,-18.15369"
         id="path29"
         sodipodi:nodetypes="csssc" />
      <path
         style="fill:#000000;fill-opacity:0;stroke:#000000;stroke-width:1.42800003;stroke-dasharray:none;stroke-opacity:0"
         d="M -19.613803,41.886258 C 39.73564,-31.281352 173.99772,3.7910476 264.12166,57.454798 c 74.23328,44.201762 172.79993,33.20243 213.86611,11.4493 41.43747,-21.9498 184.33473,-102.820804 307.33753,-9.16787 164.90339,125.555572 294.1623,-18.15369 294.1623,-18.15369"
         id="path30"
         sodipodi:nodetypes="csssc" />
      <path
         style="fill:#000000;fill-opacity:0;stroke:#40940f;stroke-width:1.828;stroke-dasharray:none;stroke-opacity:0"
         d="M -5.1200196,308.60626 C 54.229423,235.43865 188.49151,270.51105 278.61545,324.1748 c 74.23328,44.20176 172.79993,33.20243 213.86611,11.4493 41.43747,-21.9498 184.33473,-102.8208 307.33753,-9.16787 164.90339,125.55557 294.16221,-18.15369 294.16221,-18.15369"
         id="path35"
         sodipodi:nodetypes="csssc" />
      <path
         style="fill:#000000;fill-opacity:0;stroke:#40940f;stroke-width:1.828;stroke-dasharray:none;stroke-opacity:0"
         d="m -15.123675,175.09339 c 59.349443,-73.16761 193.611525,-38.09521 283.735465,15.56854 74.23328,44.20176 172.79993,33.20243 213.86611,11.4493 41.43747,-21.9498 184.33473,-102.820804 307.33753,-9.16787 164.90339,125.55557 294.16227,-18.15369 294.16227,-18.15369"
         id="path37"
         sodipodi:nodetypes="csssc" />
      <path
         style="fill:#000000;fill-opacity:0;stroke:#000000;stroke-width:1.42800003;stroke-dasharray:none;stroke-opacity:0"
         d="M -19.613803,41.886258 C 39.73564,-31.281352 173.99772,3.7910476 264.12166,57.454798 c 74.23328,44.201762 172.79993,33.20243 213.86611,11.4493 41.43747,-21.9498 184.33473,-102.820804 307.33753,-9.16787 164.90339,125.555572 294.1623,-18.15369 294.1623,-18.15369"
         id="path38"
         sodipodi:nodetypes="csssc" />
      <path
         style="fill:#000000;fill-opacity:0;stroke:#40940f;stroke-width:1.828;stroke-dasharray:none;stroke-opacity:0"
         d="M -5.1200196,308.60626 C 54.229423,235.43865 188.49151,270.51105 278.61545,324.1748 c 74.23328,44.20176 172.79993,33.20243 213.86611,11.4493 41.43747,-21.9498 184.33473,-102.8208 307.33753,-9.16787 164.90339,125.55557 294.16221,-18.15369 294.16221,-18.15369"
         id="path42"
         sodipodi:nodetypes="csssc" />
      <path
         style="fill:#000000;fill-opacity:0;stroke:#40940f;stroke-width:1.828;stroke-dasharray:none;stroke-opacity:0"
         d="m -15.123675,175.09339 c 59.349443,-73.16761 193.611525,-38.09521 283.735465,15.56854 74.23328,44.20176 172.79993,33.20243 213.86611,11.4493 41.43747,-21.9498 184.33473,-102.820804 307.33753,-9.16787 164.90339,125.55557 294.16227,-18.15369 294.16227,-18.15369"
         id="path44"
         sodipodi:nodetypes="csssc" />
      <path
         style="fill:#000000;fill-opacity:0;stroke:#000000;stroke-width:1.42800003;stroke-dasharray:none;stroke-opacity:0"
         d="M -19.613803,41.886258 C 39.73564,-31.281352 173.99772,3.7910476 264.12166,57.454798 c 74.23328,44.201762 172.79993,33.20243 213.86611,11.4493 41.43747,-21.9498 184.33473,-102.820804 307.33753,-9.16787 164.90339,125.555572 294.1623,-18.15369 294.1623,-18.15369"
         id="path45"
         sodipodi:nodetypes="csssc" />
      <path
         style="fill:#e8c897;fill-opacity:1;stroke:#220022;stroke-width:9.95917;stroke-dasharray:none;stroke-opacity:0"
         d="m 1223.0045,426.03553 c -67.6425,-9.9388 -134.1128,-39.95957 -196.1077,-88.57052 -64.63935,-50.68473 -104.65434,-72.25471 -162.1352,-87.39845 -34.57065,-9.10794 -51.28211,-10.98808 -97.94688,-11.01978 -36.98321,-0.0252 -45.0859,0.40444 -63.88061,3.38677 -80.59262,12.7883 -156.05422,41.05295 -245.10665,91.80634 -44.6835,25.46635 -71.33837,34.75787 -124.28919,43.32547 -26.95508,4.3614 -87.22179,5.49437 -116.18806,2.18416 C 149.50531,371.99647 98.559179,354.74977 44.408097,321.20376 -55.535452,259.28981 -151.89847,222.40289 -244.8579,210.47528 c -23.00922,-2.95232 -71.69188,-3.38221 -90.2659,-0.79709 -48.57049,6.76001 -89.44237,23.67938 -118.38722,49.00771 l -5.902,5.16457 V 130.12329 -3.6039495 l 13.01654,-9.2747205 c 38.28579,-27.279914 85.23977,-40.63562 142.97392,-40.667866 100.06104,-0.0559 215.793448,38.502948 334.222847,111.353811 27.371995,16.837651 45.56877,26.068717 70.041613,35.53158 78.55331,30.373925 177.96128,36.176575 263.986,15.409365 32.81339,-7.92146 51.23419,-15.612625 88.73215,-37.048042 91.52873,-52.321727 174.23104,-82.117116 257.012,-92.594476 22.59261,-2.859501 79.09246,-2.391135 100.68114,0.834612 25.44667,3.802196 47.59702,9.153399 69.86059,16.8772887 47.3442,16.4252173 77.22998,33.9205013 134.67332,78.8387433 61.953,48.444444 125.1435,77.138634 195.4135,88.735204 23.984,3.95807 73.2948,3.59334 99.2924,-0.73447 46.2456,-7.69841 90.1954,-23.81477 131.7895,-48.32712 35.6937,-21.035095 68.7445,-46.483612 92.8339,-71.48108 l 7.985,-8.286027 V 169.65203 303.74119 l -9.3738,8.91283 c -61.3717,58.35394 -133.3007,96.53644 -209.6871,111.30962 -21.0438,4.06988 -79.3062,5.26465 -101.036,2.07189 z"
         id="path46" />
      <path
         style="fill:#e6d798;fill-opacity:1;stroke:#40940f;stroke-width:7.6404;stroke-dasharray:none;stroke-opacity:0"
         d="m 1130.4399,504.80413 c -1.8793,-0.28099 -7.5906,-1.12239 -12.6916,-1.86983 -45.901,-6.72556 -94.0376,-32.58214 -140.58388,-75.51489 -6.7119,-6.19082 -15.098,-13.91085 -18.6357,-17.15558 -3.5376,-3.24472 -10.7865,-9.27354 -16.1085,-13.39732 -95.24004,-73.79752 -211.47021,-68.22888 -343.96813,16.47962 -10.19315,6.51665 -23.49779,15.21515 -29.56588,19.32997 -23.66227,16.04567 -53.03176,26.39279 -90.11134,31.74706 -16.06942,2.32044 -56.56841,1.95032 -73.70891,-0.67363 -46.60328,-7.1342 -80.21366,-21.48768 -122.03465,-52.11546 -28.86875,-21.14213 -48.87877,-33.58706 -78.18279,-48.62461 -96.62866,-49.58571 -185.79272,-56.53947 -243.988678,-19.02829 -9.991467,6.44013 -23.417679,18.67779 -31.742196,28.93214 l -8.28518,10.20586 V 266.06848 149.01783 l 6.651806,-6.48861 c 27.44765,-26.77413 59.256816,-39.71625 101.410508,-41.26058 21.31256,-0.78084 39.78922,0.84782 60.56994,5.339 59.65547,12.8929 118.8148,41.3752 181.85129,87.55238 19.24282,14.0963 32.03534,21.82444 49.24007,29.74664 55.22389,25.42872 125.10888,30.28661 185.58531,12.90056 23.06824,-6.63178 36.01823,-13.07072 62.37974,-31.01623 64.34584,-43.80314 122.48651,-68.7475 180.68253,-77.51902 15.88296,-2.39394 55.60299,-2.00183 70.78009,0.69872 17.88929,3.18318 33.46128,7.66311 49.11278,14.12946 33.28358,13.75104 54.29359,28.39787 94.67709,66.00294 43.55358,40.5571 87.97738,64.57957 137.37808,74.28809 16.8609,3.31365 51.527,3.0083 69.8036,-0.61492 53.3951,-10.58502 104.1389,-41.23408 149.1263,-90.07174 l 8.5426,-9.27348 V 299.3839 415.3368 l -8.0542,8.21547 c -40.4476,41.25723 -90.8016,69.7287 -139.5556,78.90828 -9.6935,1.82517 -43.5484,3.39396 -50.5745,2.34358 z"
         id="path47" />
      <path
         style="fill:#8cf3df;fill-opacity:1;stroke:#40940f;stroke-width:8.37571;stroke-dasharray:none;stroke-opacity:0"
         d="M 1030.7458,661.83978 C 979.57642,652.5471 929.29397,624.47792 882.39718,579.0271 833.49972,531.63732 803.22976,511.46961 759.74756,497.31032 c -26.15155,-8.51583 -38.79317,-10.27379 -74.0934,-10.30341 -27.97646,-0.0232 -34.10587,0.37818 -48.32338,3.16662 -60.96549,11.95694 -118.04956,38.38414 -185.41456,85.83813 -33.8015,23.81078 -53.96495,32.49828 -94.02038,40.50891 -20.39059,4.07787 -65.98017,5.1372 -87.89217,2.04219 -51.32228,-7.24907 -89.86122,-23.3746 -130.82459,-54.73981 C 63.575307,505.93398 -9.3199304,471.44501 -79.64046,460.2928 c -17.4057,-2.76036 -54.23238,-3.1623 -68.28298,-0.74524 -42.62113,7.33192 -74.83548,26.08387 -100.34239,58.40929 l -9.43563,11.95794 V 406.84961 283.78436 l 9.9099,-12.76721 c 40.65179,-52.37307 102.83785,-70.73579 183.00692,-54.03953 61.1156196,12.72812 129.079927,45.92943 192.09413,93.84008 34.40952,26.16208 57.25181,38.91087 88.24259,49.25005 29.71897,9.91488 57.12022,14.22091 90.34365,14.19715 53.1315,-0.0382 98.8526,-12.7345 134.99021,-37.48597 52.71012,-36.10252 77.26646,-50.73763 109.25276,-65.1126 35.32509,-15.87542 65.33736,-24.98479 97.70861,-29.65645 20.20088,-2.91535 64.84732,-2.15046 81.21705,1.39137 50.28249,10.87931 91.48637,33.16628 130.44878,70.55889 23.30441,22.36554 31.19673,29.62824 41.85487,38.51617 38.32651,31.96077 79.12011,52.77928 121.00399,61.75297 14.3136,3.06668 50.5028,4.24193 66.2493,2.15151 52.8927,-7.02182 108.4113,-36.84818 154.8429,-83.18589 5.4835,-5.47268 10.8017,-10.77295 11.818,-11.77834 1.7601,-1.7411 1.8479,4.03466 1.8479,121.31892 v 123.14699 l -9.7172,10.00971 c -42.271,43.54348 -89.6263,71.91219 -140.2372,84.01037 -15.9187,3.80529 -59.992,4.92239 -76.4299,1.93723 z"
         id="path48" />
      <path
         style="fill:#91d0ee;fill-opacity:1;stroke:#91d0ee;stroke-width:8.37571;stroke-dasharray:none;stroke-opacity:0"
         d="m 1144.4957,775.58969 c -51.1694,-9.29268 -101.4518,-37.36186 -148.34861,-82.81268 -48.89746,-47.38978 -79.16742,-67.55749 -122.64962,-81.71678 -26.15155,-8.51583 -38.79317,-10.27379 -74.0934,-10.30341 -27.97646,-0.0232 -34.10587,0.37818 -48.32338,3.16662 -60.96549,11.95694 -118.04956,38.38414 -185.41456,85.83813 -33.8015,23.81078 -53.96495,32.49828 -94.02038,40.50891 -20.39059,4.07787 -65.98017,5.1372 -87.89217,2.04219 C 332.4313,725.0636 293.89236,708.93807 252.92899,677.57286 177.32522,619.68389 104.42998,585.19492 34.10945,574.04271 c -17.4057,-2.76036 -54.23238,-3.1623 -68.28298,-0.74524 -42.62113,7.33192 -74.83548,26.08387 -100.34239,58.40929 l -9.43563,11.95794 V 520.59952 397.53427 l 9.9099,-12.76721 c 40.65179,-52.37307 102.83785,-70.73579 183.00692,-54.03953 61.11562,12.72812 129.07993,45.92943 192.09413,93.84008 34.40952,26.16208 57.25181,38.91087 88.24259,49.25005 29.71897,9.91488 57.12022,14.22091 90.34365,14.19715 53.1315,-0.0382 98.8526,-12.7345 134.99021,-37.48597 52.71012,-36.10252 77.26646,-50.73763 109.25276,-65.1126 35.32509,-15.87542 65.33736,-24.98479 97.70861,-29.65645 20.20088,-2.91535 64.84732,-2.15046 81.21705,1.39137 50.28249,10.87931 91.48637,33.16628 130.44878,70.55889 23.30441,22.36554 31.19675,29.62824 41.85485,38.51617 38.3265,31.96077 79.1201,52.77928 121.004,61.75297 14.3136,3.06668 50.5028,4.24193 66.2493,2.15151 52.8927,-7.02182 108.4113,-36.84818 154.8429,-83.18589 5.4835,-5.47268 10.8017,-10.77295 11.818,-11.77834 1.7601,-1.7411 1.8479,4.03466 1.8479,121.31892 v 123.14699 l -9.7172,10.00971 c -42.271,43.54348 -89.6263,71.91219 -140.2372,84.01037 -15.9187,3.80529 -59.992,4.92239 -76.4299,1.93723 z"
         id="path174" />
    </g>
    <g
       id="g190"
       transform="translate(0,502.89434)">
      <path
         style="fill:#000000;fill-opacity:0;stroke:#40940f;stroke-width:1.828;stroke-dasharray:none;stroke-opacity:0"
         d="M -5.1200196,308.60626 C 54.229423,235.43865 188.49151,270.51105 278.61545,324.1748 c 74.23328,44.20176 172.79993,33.20243 213.86611,11.4493 41.43747,-21.9498 184.33473,-102.8208 307.33753,-9.16787 164.90339,125.55557 294.16221,-18.15369 294.16221,-18.15369"
         id="path175"
         sodipodi:nodetypes="csssc" />
      <path
         style="fill:#000000;fill-opacity:0;stroke:#40940f;stroke-width:1.828;stroke-dasharray:none;stroke-opacity:0"
         d="m -15.123675,175.09339 c 59.349443,-73.16761 193.611525,-38.09521 283.735465,15.56854 74.23328,44.20176 172.79993,33.20243 213.86611,11.4493 41.43747,-21.9498 184.33473,-102.820804 307.33753,-9.16787 164.90339,125.55557 294.16227,-18.15369 294.16227,-18.15369"
         id="path176"
         sodipodi:nodetypes="csssc" />
      <path
         style="fill:#000000;fill-opacity:0;stroke:#000000;stroke-width:1.428;stroke-dasharray:none;stroke-opacity:0"
         d="M -19.613803,41.886258 C 39.73564,-31.281352 173.99772,3.7910476 264.12166,57.454798 c 74.23328,44.201762 172.79993,33.20243 213.86611,11.4493 41.43747,-21.9498 184.33473,-102.820804 307.33753,-9.16787 164.90339,125.555572 294.1623,-18.15369 294.1623,-18.15369"
         id="path177"
         sodipodi:nodetypes="csssc" />
      <path
         style="fill:#000000;fill-opacity:0;stroke:#40940f;stroke-width:1.828;stroke-dasharray:none;stroke-opacity:0"
         d="M -5.1200196,308.60626 C 54.229423,235.43865 188.49151,270.51105 278.61545,324.1748 c 74.23328,44.20176 172.79993,33.20243 213.86611,11.4493 41.43747,-21.9498 184.33473,-102.8208 307.33753,-9.16787 164.90339,125.55557 294.16221,-18.15369 294.16221,-18.15369"
         id="path178"
         sodipodi:nodetypes="csssc" />
      <path
         style="fill:#000000;fill-opacity:0;stroke:#40940f;stroke-width:1.828;stroke-dasharray:none;stroke-opacity:0"
         d="m -15.123675,175.09339 c 59.349443,-73.16761 193.611525,-38.09521 283.735465,15.56854 74.23328,44.20176 172.79993,33.20243 213.86611,11.4493 41.43747,-21.9498 184.33473,-102.820804 307.33753,-9.16787 164.90339,125.55557 294.16227,-18.15369 294.16227,-18.15369"
         id="path179"
         sodipodi:nodetypes="csssc" />
      <path
         style="fill:#000000;fill-opacity:0;stroke:#000000;stroke-width:1.428;stroke-dasharray:none;stroke-opacity:0"
         d="M -19.613803,41.886258 C 39.73564,-31.281352 173.99772,3.7910476 264.12166,57.454798 c 74.23328,44.201762 172.79993,33.20243 213.86611,11.4493 41.43747,-21.9498 184.33473,-102.820804 307.33753,-9.16787 164.90339,125.555572 294.1623,-18.15369 294.1623,-18.15369"
         id="path180"
         sodipodi:nodetypes="csssc" />
      <path
         style="fill:#000000;fill-opacity:0;stroke:#40940f;stroke-width:1.828;stroke-dasharray:none;stroke-opacity:0"
         d="M -5.1200196,308.60626 C 54.229423,235.43865 188.49151,270.51105 278.61545,324.1748 c 74.23328,44.20176 172.79993,33.20243 213.86611,11.4493 41.43747,-21.9498 184.33473,-102.8208 307.33753,-9.16787 164.90339,125.55557 294.16221,-18.15369 294.16221,-18.15369"
         id="path181"
         sodipodi:nodetypes="csssc" />
      <path
         style="fill:#000000;fill-opacity:0;stroke:#40940f;stroke-width:1.828;stroke-dasharray:none;stroke-opacity:0"
         d="m -15.123675,175.09339 c 59.349443,-73.16761 193.611525,-38.09521 283.735465,15.56854 74.23328,44.20176 172.79993,33.20243 213.86611,11.4493 41.43747,-21.9498 184.33473,-102.820804 307.33753,-9.16787 164.90339,125.55557 294.16227,-18.15369 294.16227,-18.15369"
         id="path182"
         sodipodi:nodetypes="csssc" />
      <path
         style="fill:#000000;fill-opacity:0;stroke:#000000;stroke-width:1.428;stroke-dasharray:none;stroke-opacity:0"
         d="M -19.613803,41.886258 C 39.73564,-31.281352 173.99772,3.7910476 264.12166,57.454798 c 74.23328,44.201762 172.79993,33.20243 213.86611,11.4493 41.43747,-21.9498 184.33473,-102.820804 307.33753,-9.16787 164.90339,125.555572 294.1623,-18.15369 294.1623,-18.15369"
         id="path183"
         sodipodi:nodetypes="csssc" />
      <path
         style="fill:#000000;fill-opacity:0;stroke:#40940f;stroke-width:1.828;stroke-dasharray:none;stroke-opacity:0"
         d="M -5.1200196,308.60626 C 54.229423,235.43865 188.49151,270.51105 278.61545,324.1748 c 74.23328,44.20176 172.79993,33.20243 213.86611,11.4493 41.43747,-21.9498 184.33473,-102.8208 307.33753,-9.16787 164.90339,125.55557 294.16221,-18.15369 294.16221,-18.15369"
         id="path184"
         sodipodi:nodetypes="csssc" />
      <path
         style="fill:#000000;fill-opacity:0;stroke:#40940f;stroke-width:1.828;stroke-dasharray:none;stroke-opacity:0"
         d="m -15.123675,175.09339 c 59.349443,-73.16761 193.611525,-38.09521 283.735465,15.56854 74.23328,44.20176 172.79993,33.20243 213.86611,11.4493 41.43747,-21.9498 184.33473,-102.820804 307.33753,-9.16787 164.90339,125.55557 294.16227,-18.15369 294.16227,-18.15369"
         id="path185"
         sodipodi:nodetypes="csssc" />
      <path
         style="fill:#000000;fill-opacity:0;stroke:#000000;stroke-width:1.428;stroke-dasharray:none;stroke-opacity:0"
         d="M -19.613803,41.886258 C 39.73564,-31.281352 173.99772,3.7910476 264.12166,57.454798 c 74.23328,44.201762 172.79993,33.20243 213.86611,11.4493 41.43747,-21.9498 184.33473,-102.820804 307.33753,-9.16787 164.90339,125.555572 294.1623,-18.15369 294.1623,-18.15369"
         id="path186"
         sodipodi:nodetypes="csssc" />
      <path
         style="fill:#e8c897;fill-opacity:1;stroke:#220022;stroke-width:9.95917;stroke-dasharray:none;stroke-opacity:0"
         d="m 1223.0045,426.03553 c -67.6425,-9.9388 -134.1128,-39.95957 -196.1077,-88.57052 -64.63935,-50.68473 -104.65434,-72.25471 -162.1352,-87.39845 -34.57065,-9.10794 -51.28211,-10.98808 -97.94688,-11.01978 -36.98321,-0.0252 -45.0859,0.40444 -63.88061,3.38677 -80.59262,12.7883 -156.05422,41.05295 -245.10665,91.80634 -44.6835,25.46635 -71.33837,34.75787 -124.28919,43.32547 -26.95508,4.3614 -87.22179,5.49437 -116.18806,2.18416 C 149.50531,371.99647 98.559179,354.74977 44.408097,321.20376 -55.535452,259.28981 -151.89847,222.40289 -244.8579,210.47528 c -23.00922,-2.95232 -71.69188,-3.38221 -90.2659,-0.79709 -48.57049,6.76001 -89.44237,23.67938 -118.38722,49.00771 l -5.902,5.16457 V 130.12329 -3.6039495 l 13.01654,-9.2747205 c 38.28579,-27.279914 85.23977,-40.63562 142.97392,-40.667866 100.06104,-0.0559 215.793448,38.502948 334.222847,111.353811 27.371995,16.837651 45.56877,26.068717 70.041613,35.53158 78.55331,30.373925 177.96128,36.176575 263.986,15.409365 32.81339,-7.92146 51.23419,-15.612625 88.73215,-37.048042 91.52873,-52.321727 174.23104,-82.117116 257.012,-92.594476 22.59261,-2.859501 79.09246,-2.391135 100.68114,0.834612 25.44667,3.802196 47.59702,9.153399 69.86059,16.8772887 47.3442,16.4252173 77.22998,33.9205013 134.67332,78.8387433 61.953,48.444444 125.1435,77.138634 195.4135,88.735204 23.984,3.95807 73.2948,3.59334 99.2924,-0.73447 46.2456,-7.69841 90.1954,-23.81477 131.7895,-48.32712 35.6937,-21.035095 68.7445,-46.483612 92.8339,-71.48108 l 7.985,-8.286027 V 169.65203 303.74119 l -9.3738,8.91283 c -61.3717,58.35394 -133.3007,96.53644 -209.6871,111.30962 -21.0438,4.06988 -79.3062,5.26465 -101.036,2.07189 z"
         id="path187" />
      <path
         style="fill:#e6d798;fill-opacity:1;stroke:#40940f;stroke-width:7.6404;stroke-dasharray:none;stroke-opacity:0"
         d="m 1130.4399,504.80413 c -1.8793,-0.28099 -7.5906,-1.12239 -12.6916,-1.86983 -45.901,-6.72556 -94.0376,-32.58214 -140.58388,-75.51489 -6.7119,-6.19082 -15.098,-13.91085 -18.6357,-17.15558 -3.5376,-3.24472 -10.7865,-9.27354 -16.1085,-13.39732 -95.24004,-73.79752 -211.47021,-68.22888 -343.96813,16.47962 -10.19315,6.51665 -23.49779,15.21515 -29.56588,19.32997 -23.66227,16.04567 -53.03176,26.39279 -90.11134,31.74706 -16.06942,2.32044 -56.56841,1.95032 -73.70891,-0.67363 -46.60328,-7.1342 -80.21366,-21.48768 -122.03465,-52.11546 -28.86875,-21.14213 -48.87877,-33.58706 -78.18279,-48.62461 -96.62866,-49.58571 -185.79272,-56.53947 -243.988678,-19.02829 -9.991467,6.44013 -23.417679,18.67779 -31.742196,28.93214 l -8.28518,10.20586 V 266.06848 149.01783 l 6.651806,-6.48861 c 27.44765,-26.77413 59.256816,-39.71625 101.410508,-41.26058 21.31256,-0.78084 39.78922,0.84782 60.56994,5.339 59.65547,12.8929 118.8148,41.3752 181.85129,87.55238 19.24282,14.0963 32.03534,21.82444 49.24007,29.74664 55.22389,25.42872 125.10888,30.28661 185.58531,12.90056 23.06824,-6.63178 36.01823,-13.07072 62.37974,-31.01623 64.34584,-43.80314 122.48651,-68.7475 180.68253,-77.51902 15.88296,-2.39394 55.60299,-2.00183 70.78009,0.69872 17.88929,3.18318 33.46128,7.66311 49.11278,14.12946 33.28358,13.75104 54.29359,28.39787 94.67709,66.00294 43.55358,40.5571 87.97738,64.57957 137.37808,74.28809 16.8609,3.31365 51.527,3.0083 69.8036,-0.61492 53.3951,-10.58502 104.1389,-41.23408 149.1263,-90.07174 l 8.5426,-9.27348 V 299.3839 415.3368 l -8.0542,8.21547 c -40.4476,41.25723 -90.8016,69.7287 -139.5556,78.90828 -9.6935,1.82517 -43.5484,3.39396 -50.5745,2.34358 z"
         id="path188" />
      <path
         style="fill:#8cf3df;fill-opacity:1;stroke:#40940f;stroke-width:8.37571;stroke-dasharray:none;stroke-opacity:0"
         d="M 1030.7458,661.83978 C 979.57642,652.5471 929.29397,624.47792 882.39718,579.0271 833.49972,531.63732 803.22976,511.46961 759.74756,497.31032 c -26.15155,-8.51583 -38.79317,-10.27379 -74.0934,-10.30341 -27.97646,-0.0232 -34.10587,0.37818 -48.32338,3.16662 -60.96549,11.95694 -118.04956,38.38414 -185.41456,85.83813 -33.8015,23.81078 -53.96495,32.49828 -94.02038,40.50891 -20.39059,4.07787 -65.98017,5.1372 -87.89217,2.04219 -51.32228,-7.24907 -89.86122,-23.3746 -130.82459,-54.73981 C 63.575307,505.93398 -9.3199304,471.44501 -79.64046,460.2928 c -17.4057,-2.76036 -54.23238,-3.1623 -68.28298,-0.74524 -42.62113,7.33192 -74.83548,26.08387 -100.34239,58.40929 l -9.43563,11.95794 V 406.84961 283.78436 l 9.9099,-12.76721 c 40.65179,-52.37307 102.83785,-70.73579 183.00692,-54.03953 61.1156196,12.72812 129.079927,45.92943 192.09413,93.84008 34.40952,26.16208 57.25181,38.91087 88.24259,49.25005 29.71897,9.91488 57.12022,14.22091 90.34365,14.19715 53.1315,-0.0382 98.8526,-12.7345 134.99021,-37.48597 52.71012,-36.10252 77.26646,-50.73763 109.25276,-65.1126 35.32509,-15.87542 65.33736,-24.98479 97.70861,-29.65645 20.20088,-2.91535 64.84732,-2.15046 81.21705,1.39137 50.28249,10.87931 91.48637,33.16628 130.44878,70.55889 23.30441,22.36554 31.19673,29.62824 41.85487,38.51617 38.32651,31.96077 79.12011,52.77928 121.00399,61.75297 14.3136,3.06668 50.5028,4.24193 66.2493,2.15151 52.8927,-7.02182 108.4113,-36.84818 154.8429,-83.18589 5.4835,-5.47268 10.8017,-10.77295 11.818,-11.77834 1.7601,-1.7411 1.8479,4.03466 1.8479,121.31892 v 123.14699 l -9.7172,10.00971 c -42.271,43.54348 -89.6263,71.91219 -140.2372,84.01037 -15.9187,3.80529 -59.992,4.92239 -76.4299,1.93723 z"
         id="path189" />
      <path
         style="fill:#91d0ee;fill-opacity:1;stroke:#91d0ee;stroke-width:8.37571;stroke-dasharray:none;stroke-opacity:0"
         d="m 1144.4957,775.58969 c -51.1694,-9.29268 -101.4518,-37.36186 -148.34861,-82.81268 -48.89746,-47.38978 -79.16742,-67.55749 -122.64962,-81.71678 -26.15155,-8.51583 -38.79317,-10.27379 -74.0934,-10.30341 -27.97646,-0.0232 -34.10587,0.37818 -48.32338,3.16662 -60.96549,11.95694 -118.04956,38.38414 -185.41456,85.83813 -33.8015,23.81078 -53.96495,32.49828 -94.02038,40.50891 -20.39059,4.07787 -65.98017,5.1372 -87.89217,2.04219 C 332.4313,725.0636 293.89236,708.93807 252.92899,677.57286 177.32522,619.68389 104.42998,585.19492 34.10945,574.04271 c -17.4057,-2.76036 -54.23238,-3.1623 -68.28298,-0.74524 -42.62113,7.33192 -74.83548,26.08387 -100.34239,58.40929 l -9.43563,11.95794 V 520.59952 397.53427 l 9.9099,-12.76721 c 40.65179,-52.37307 102.83785,-70.73579 183.00692,-54.03953 61.11562,12.72812 129.07993,45.92943 192.09413,93.84008 34.40952,26.16208 57.25181,38.91087 88.24259,49.25005 29.71897,9.91488 57.12022,14.22091 90.34365,14.19715 53.1315,-0.0382 98.8526,-12.7345 134.99021,-37.48597 52.71012,-36.10252 77.26646,-50.73763 109.25276,-65.1126 35.32509,-15.87542 65.33736,-24.98479 97.70861,-29.65645 20.20088,-2.91535 64.84732,-2.15046 81.21705,1.39137 50.28249,10.87931 91.48637,33.16628 130.44878,70.55889 23.30441,22.36554 31.19675,29.62824 41.85485,38.51617 38.3265,31.96077 79.1201,52.77928 121.004,61.75297 14.3136,3.06668 50.5028,4.24193 66.2493,2.15151 52.8927,-7.02182 108.4113,-36.84818 154.8429,-83.18589 5.4835,-5.47268 10.8017,-10.77295 11.818,-11.77834 1.7601,-1.7411 1.8479,4.03466 1.8479,121.31892 v 123.14699 l -9.7172,10.00971 c -42.271,43.54348 -89.6263,71.91219 -140.2372,84.01037 -15.9187,3.80529 -59.992,4.92239 -76.4299,1.93723 z"
         id="path190" />
    </g>
    <g
       id="g206"
       transform="translate(0,1004.5443)">
      <path
         style="fill:#000000;fill-opacity:0;stroke:#40940f;stroke-width:1.828;stroke-dasharray:none;stroke-opacity:0"
         d="M -5.1200196,308.60626 C 54.229423,235.43865 188.49151,270.51105 278.61545,324.1748 c 74.23328,44.20176 172.79993,33.20243 213.86611,11.4493 41.43747,-21.9498 184.33473,-102.8208 307.33753,-9.16787 164.90339,125.55557 294.16221,-18.15369 294.16221,-18.15369"
         id="path191"
         sodipodi:nodetypes="csssc" />
      <path
         style="fill:#000000;fill-opacity:0;stroke:#40940f;stroke-width:1.828;stroke-dasharray:none;stroke-opacity:0"
         d="m -15.123675,175.09339 c 59.349443,-73.16761 193.611525,-38.09521 283.735465,15.56854 74.23328,44.20176 172.79993,33.20243 213.86611,11.4493 41.43747,-21.9498 184.33473,-102.820804 307.33753,-9.16787 164.90339,125.55557 294.16227,-18.15369 294.16227,-18.15369"
         id="path192"
         sodipodi:nodetypes="csssc" />
      <path
         style="fill:#000000;fill-opacity:0;stroke:#000000;stroke-width:1.428;stroke-dasharray:none;stroke-opacity:0"
         d="M -19.613803,41.886258 C 39.73564,-31.281352 173.99772,3.7910476 264.12166,57.454798 c 74.23328,44.201762 172.79993,33.20243 213.86611,11.4493 41.43747,-21.9498 184.33473,-102.820804 307.33753,-9.16787 164.90339,125.555572 294.1623,-18.15369 294.1623,-18.15369"
         id="path193"
         sodipodi:nodetypes="csssc" />
      <path
         style="fill:#000000;fill-opacity:0;stroke:#40940f;stroke-width:1.828;stroke-dasharray:none;stroke-opacity:0"
         d="M -5.1200196,308.60626 C 54.229423,235.43865 188.49151,270.51105 278.61545,324.1748 c 74.23328,44.20176 172.79993,33.20243 213.86611,11.4493 41.43747,-21.9498 184.33473,-102.8208 307.33753,-9.16787 164.90339,125.55557 294.16221,-18.15369 294.16221,-18.15369"
         id="path194"
         sodipodi:nodetypes="csssc" />
      <path
         style="fill:#000000;fill-opacity:0;stroke:#40940f;stroke-width:1.828;stroke-dasharray:none;stroke-opacity:0"
         d="m -15.123675,175.09339 c 59.349443,-73.16761 193.611525,-38.09521 283.735465,15.56854 74.23328,44.20176 172.79993,33.20243 213.86611,11.4493 41.43747,-21.9498 184.33473,-102.820804 307.33753,-9.16787 164.90339,125.55557 294.16227,-18.15369 294.16227,-18.15369"
         id="path195"
         sodipodi:nodetypes="csssc" />
      <path
         style="fill:#000000;fill-opacity:0;stroke:#000000;stroke-width:1.428;stroke-dasharray:none;stroke-opacity:0"
         d="M -19.613803,41.886258 C 39.73564,-31.281352 173.99772,3.7910476 264.12166,57.454798 c 74.23328,44.201762 172.79993,33.20243 213.86611,11.4493 41.43747,-21.9498 184.33473,-102.820804 307.33753,-9.16787 164.90339,125.555572 294.1623,-18.15369 294.1623,-18.15369"
         id="path196"
         sodipodi:nodetypes="csssc" />
      <path
         style="fill:#000000;fill-opacity:0;stroke:#40940f;stroke-width:1.828;stroke-dasharray:none;stroke-opacity:0"
         d="M -5.1200196,308.60626 C 54.229423,235.43865 188.49151,270.51105 278.61545,324.1748 c 74.23328,44.20176 172.79993,33.20243 213.86611,11.4493 41.43747,-21.9498 184.33473,-102.8208 307.33753,-9.16787 164.90339,125.55557 294.16221,-18.15369 294.16221,-18.15369"
         id="path197"
         sodipodi:nodetypes="csssc" />
      <path
         style="fill:#000000;fill-opacity:0;stroke:#40940f;stroke-width:1.828;stroke-dasharray:none;stroke-opacity:0"
         d="m -15.123675,175.09339 c 59.349443,-73.16761 193.611525,-38.09521 283.735465,15.56854 74.23328,44.20176 172.79993,33.20243 213.86611,11.4493 41.43747,-21.9498 184.33473,-102.820804 307.33753,-9.16787 164.90339,125.55557 294.16227,-18.15369 294.16227,-18.15369"
         id="path198"
         sodipodi:nodetypes="csssc" />
      <path
         style="fill:#000000;fill-opacity:0;stroke:#000000;stroke-width:1.428;stroke-dasharray:none;stroke-opacity:0"
         d="M -19.613803,41.886258 C 39.73564,-31.281352 173.99772,3.7910476 264.12166,57.454798 c 74.23328,44.201762 172.79993,33.20243 213.86611,11.4493 41.43747,-21.9498 184.33473,-102.820804 307.33753,-9.16787 164.90339,125.555572 294.1623,-18.15369 294.1623,-18.15369"
         id="path199"
         sodipodi:nodetypes="csssc" />
      <path
         style="fill:#000000;fill-opacity:0;stroke:#40940f;stroke-width:1.828;stroke-dasharray:none;stroke-opacity:0"
         d="M -5.1200196,308.60626 C 54.229423,235.43865 188.49151,270.51105 278.61545,324.1748 c 74.23328,44.20176 172.79993,33.20243 213.86611,11.4493 41.43747,-21.9498 184.33473,-102.8208 307.33753,-9.16787 164.90339,125.55557 294.16221,-18.15369 294.16221,-18.15369"
         id="path200"
         sodipodi:nodetypes="csssc" />
      <path
         style="fill:#000000;fill-opacity:0;stroke:#40940f;stroke-width:1.828;stroke-dasharray:none;stroke-opacity:0"
         d="m -15.123675,175.09339 c 59.349443,-73.16761 193.611525,-38.09521 283.735465,15.56854 74.23328,44.20176 172.79993,33.20243 213.86611,11.4493 41.43747,-21.9498 184.33473,-102.820804 307.33753,-9.16787 164.90339,125.55557 294.16227,-18.15369 294.16227,-18.15369"
         id="path201"
         sodipodi:nodetypes="csssc" />
      <path
         style="fill:#000000;fill-opacity:0;stroke:#000000;stroke-width:1.428;stroke-dasharray:none;stroke-opacity:0"
         d="M -19.613803,41.886258 C 39.73564,-31.281352 173.99772,3.7910476 264.12166,57.454798 c 74.23328,44.201762 172.79993,33.20243 213.86611,11.4493 41.43747,-21.9498 184.33473,-102.820804 307.33753,-9.16787 164.90339,125.555572 294.1623,-18.15369 294.1623,-18.15369"
         id="path202"
         sodipodi:nodetypes="csssc" />
      <path
         style="fill:#e8c897;fill-opacity:1;stroke:#220022;stroke-width:9.95917;stroke-dasharray:none;stroke-opacity:0"
         d="m 1223.0045,426.03553 c -67.6425,-9.9388 -134.1128,-39.95957 -196.1077,-88.57052 -64.63935,-50.68473 -104.65434,-72.25471 -162.1352,-87.39845 -34.57065,-9.10794 -51.28211,-10.98808 -97.94688,-11.01978 -36.98321,-0.0252 -45.0859,0.40444 -63.88061,3.38677 -80.59262,12.7883 -156.05422,41.05295 -245.10665,91.80634 -44.6835,25.46635 -71.33837,34.75787 -124.28919,43.32547 -26.95508,4.3614 -87.22179,5.49437 -116.18806,2.18416 C 149.50531,371.99647 98.559179,354.74977 44.408097,321.20376 -55.535452,259.28981 -151.89847,222.40289 -244.8579,210.47528 c -23.00922,-2.95232 -71.69188,-3.38221 -90.2659,-0.79709 -48.57049,6.76001 -89.44237,23.67938 -118.38722,49.00771 l -5.902,5.16457 V 130.12329 -3.6039495 l 13.01654,-9.2747205 c 38.28579,-27.279914 85.23977,-40.63562 142.97392,-40.667866 100.06104,-0.0559 215.793448,38.502948 334.222847,111.353811 27.371995,16.837651 45.56877,26.068717 70.041613,35.53158 78.55331,30.373925 177.96128,36.176575 263.986,15.409365 32.81339,-7.92146 51.23419,-15.612625 88.73215,-37.048042 91.52873,-52.321727 174.23104,-82.117116 257.012,-92.594476 22.59261,-2.859501 79.09246,-2.391135 100.68114,0.834612 25.44667,3.802196 47.59702,9.153399 69.86059,16.8772887 47.3442,16.4252173 77.22998,33.9205013 134.67332,78.8387433 61.953,48.444444 125.1435,77.138634 195.4135,88.735204 23.984,3.95807 73.2948,3.59334 99.2924,-0.73447 46.2456,-7.69841 90.1954,-23.81477 131.7895,-48.32712 35.6937,-21.035095 68.7445,-46.483612 92.8339,-71.48108 l 7.985,-8.286027 V 169.65203 303.74119 l -9.3738,8.91283 c -61.3717,58.35394 -133.3007,96.53644 -209.6871,111.30962 -21.0438,4.06988 -79.3062,5.26465 -101.036,2.07189 z"
         id="path203" />
      <path
         style="fill:#e6d798;fill-opacity:1;stroke:#40940f;stroke-width:7.6404;stroke-dasharray:none;stroke-opacity:0"
         d="m 1130.4399,504.80413 c -1.8793,-0.28099 -7.5906,-1.12239 -12.6916,-1.86983 -45.901,-6.72556 -94.0376,-32.58214 -140.58388,-75.51489 -6.7119,-6.19082 -15.098,-13.91085 -18.6357,-17.15558 -3.5376,-3.24472 -10.7865,-9.27354 -16.1085,-13.39732 -95.24004,-73.79752 -211.47021,-68.22888 -343.96813,16.47962 -10.19315,6.51665 -23.49779,15.21515 -29.56588,19.32997 -23.66227,16.04567 -53.03176,26.39279 -90.11134,31.74706 -16.06942,2.32044 -56.56841,1.95032 -73.70891,-0.67363 -46.60328,-7.1342 -80.21366,-21.48768 -122.03465,-52.11546 -28.86875,-21.14213 -48.87877,-33.58706 -78.18279,-48.62461 -96.62866,-49.58571 -185.79272,-56.53947 -243.988678,-19.02829 -9.991467,6.44013 -23.417679,18.67779 -31.742196,28.93214 l -8.28518,10.20586 V 266.06848 149.01783 l 6.651806,-6.48861 c 27.44765,-26.77413 59.256816,-39.71625 101.410508,-41.26058 21.31256,-0.78084 39.78922,0.84782 60.56994,5.339 59.65547,12.8929 118.8148,41.3752 181.85129,87.55238 19.24282,14.0963 32.03534,21.82444 49.24007,29.74664 55.22389,25.42872 125.10888,30.28661 185.58531,12.90056 23.06824,-6.63178 36.01823,-13.07072 62.37974,-31.01623 64.34584,-43.80314 122.48651,-68.7475 180.68253,-77.51902 15.88296,-2.39394 55.60299,-2.00183 70.78009,0.69872 17.88929,3.18318 33.46128,7.66311 49.11278,14.12946 33.28358,13.75104 54.29359,28.39787 94.67709,66.00294 43.55358,40.5571 87.97738,64.57957 137.37808,74.28809 16.8609,3.31365 51.527,3.0083 69.8036,-0.61492 53.3951,-10.58502 104.1389,-41.23408 149.1263,-90.07174 l 8.5426,-9.27348 V 299.3839 415.3368 l -8.0542,8.21547 c -40.4476,41.25723 -90.8016,69.7287 -139.5556,78.90828 -9.6935,1.82517 -43.5484,3.39396 -50.5745,2.34358 z"
         id="path204" />
      <path
         style="fill:#8cf3df;fill-opacity:1;stroke:#40940f;stroke-width:8.37571;stroke-dasharray:none;stroke-opacity:0"
         d="M 1030.7458,661.83978 C 979.57642,652.5471 929.29397,624.47792 882.39718,579.0271 833.49972,531.63732 803.22976,511.46961 759.74756,497.31032 c -26.15155,-8.51583 -38.79317,-10.27379 -74.0934,-10.30341 -27.97646,-0.0232 -34.10587,0.37818 -48.32338,3.16662 -60.96549,11.95694 -118.04956,38.38414 -185.41456,85.83813 -33.8015,23.81078 -53.96495,32.49828 -94.02038,40.50891 -20.39059,4.07787 -65.98017,5.1372 -87.89217,2.04219 -51.32228,-7.24907 -89.86122,-23.3746 -130.82459,-54.73981 C 63.575307,505.93398 -9.3199304,471.44501 -79.64046,460.2928 c -17.4057,-2.76036 -54.23238,-3.1623 -68.28298,-0.74524 -42.62113,7.33192 -74.83548,26.08387 -100.34239,58.40929 l -9.43563,11.95794 V 406.84961 283.78436 l 9.9099,-12.76721 c 40.65179,-52.37307 102.83785,-70.73579 183.00692,-54.03953 61.1156196,12.72812 129.079927,45.92943 192.09413,93.84008 34.40952,26.16208 57.25181,38.91087 88.24259,49.25005 29.71897,9.91488 57.12022,14.22091 90.34365,14.19715 53.1315,-0.0382 98.8526,-12.7345 134.99021,-37.48597 52.71012,-36.10252 77.26646,-50.73763 109.25276,-65.1126 35.32509,-15.87542 65.33736,-24.98479 97.70861,-29.65645 20.20088,-2.91535 64.84732,-2.15046 81.21705,1.39137 50.28249,10.87931 91.48637,33.16628 130.44878,70.55889 23.30441,22.36554 31.19673,29.62824 41.85487,38.51617 38.32651,31.96077 79.12011,52.77928 121.00399,61.75297 14.3136,3.06668 50.5028,4.24193 66.2493,2.15151 52.8927,-7.02182 108.4113,-36.84818 154.8429,-83.18589 5.4835,-5.47268 10.8017,-10.77295 11.818,-11.77834 1.7601,-1.7411 1.8479,4.03466 1.8479,121.31892 v 123.14699 l -9.7172,10.00971 c -42.271,43.54348 -89.6263,71.91219 -140.2372,84.01037 -15.9187,3.80529 -59.992,4.92239 -76.4299,1.93723 z"
         id="path205" />
      <path
         style="fill:#91d0ee;fill-opacity:1;stroke:#91d0ee;stroke-width:8.37571;stroke-dasharray:none;stroke-opacity:0"
         d="m 1144.4957,775.58969 c -51.1694,-9.29268 -101.4518,-37.36186 -148.34861,-82.81268 -48.89746,-47.38978 -79.16742,-67.55749 -122.64962,-81.71678 -26.15155,-8.51583 -38.79317,-10.27379 -74.0934,-10.30341 -27.97646,-0.0232 -34.10587,0.37818 -48.32338,3.16662 -60.96549,11.95694 -118.04956,38.38414 -185.41456,85.83813 -33.8015,23.81078 -53.96495,32.49828 -94.02038,40.50891 -20.39059,4.07787 -65.98017,5.1372 -87.89217,2.04219 C 332.4313,725.0636 293.89236,708.93807 252.92899,677.57286 177.32522,619.68389 104.42998,585.19492 34.10945,574.04271 c -17.4057,-2.76036 -54.23238,-3.1623 -68.28298,-0.74524 -42.62113,7.33192 -74.83548,26.08387 -100.34239,58.40929 l -9.43563,11.95794 V 520.59952 397.53427 l 9.9099,-12.76721 c 40.65179,-52.37307 102.83785,-70.73579 183.00692,-54.03953 61.11562,12.72812 129.07993,45.92943 192.09413,93.84008 34.40952,26.16208 57.25181,38.91087 88.24259,49.25005 29.71897,9.91488 57.12022,14.22091 90.34365,14.19715 53.1315,-0.0382 98.8526,-12.7345 134.99021,-37.48597 52.71012,-36.10252 77.26646,-50.73763 109.25276,-65.1126 35.32509,-15.87542 65.33736,-24.98479 97.70861,-29.65645 20.20088,-2.91535 64.84732,-2.15046 81.21705,1.39137 50.28249,10.87931 91.48637,33.16628 130.44878,70.55889 23.30441,22.36554 31.19675,29.62824 41.85485,38.51617 38.3265,31.96077 79.1201,52.77928 121.004,61.75297 14.3136,3.06668 50.5028,4.24193 66.2493,2.15151 52.8927,-7.02182 108.4113,-36.84818 154.8429,-83.18589 5.4835,-5.47268 10.8017,-10.77295 11.818,-11.77834 1.7601,-1.7411 1.8479,4.03466 1.8479,121.31892 v 123.14699 l -9.7172,10.00971 c -42.271,43.54348 -89.6263,71.91219 -140.2372,84.01037 -15.9187,3.80529 -59.992,4.92239 -76.4299,1.93723 z"
         id="path206" />
    </g>
    <g
       id="g222"
       transform="translate(0,1508.311)">
      <path
         style="fill:#000000;fill-opacity:0;stroke:#40940f;stroke-width:1.828;stroke-dasharray:none;stroke-opacity:0"
         d="M -5.1200196,308.60626 C 54.229423,235.43865 188.49151,270.51105 278.61545,324.1748 c 74.23328,44.20176 172.79993,33.20243 213.86611,11.4493 41.43747,-21.9498 184.33473,-102.8208 307.33753,-9.16787 164.90339,125.55557 294.16221,-18.15369 294.16221,-18.15369"
         id="path207"
         sodipodi:nodetypes="csssc" />
      <path
         style="fill:#000000;fill-opacity:0;stroke:#40940f;stroke-width:1.828;stroke-dasharray:none;stroke-opacity:0"
         d="m -15.123675,175.09339 c 59.349443,-73.16761 193.611525,-38.09521 283.735465,15.56854 74.23328,44.20176 172.79993,33.20243 213.86611,11.4493 41.43747,-21.9498 184.33473,-102.820804 307.33753,-9.16787 164.90339,125.55557 294.16227,-18.15369 294.16227,-18.15369"
         id="path208"
         sodipodi:nodetypes="csssc" />
      <path
         style="fill:#000000;fill-opacity:0;stroke:#000000;stroke-width:1.428;stroke-dasharray:none;stroke-opacity:0"
         d="M -19.613803,41.886258 C 39.73564,-31.281352 173.99772,3.7910476 264.12166,57.454798 c 74.23328,44.201762 172.79993,33.20243 213.86611,11.4493 41.43747,-21.9498 184.33473,-102.820804 307.33753,-9.16787 164.90339,125.555572 294.1623,-18.15369 294.1623,-18.15369"
         id="path209"
         sodipodi:nodetypes="csssc" />
      <path
         style="fill:#000000;fill-opacity:0;stroke:#40940f;stroke-width:1.828;stroke-dasharray:none;stroke-opacity:0"
         d="M -5.1200196,308.60626 C 54.229423,235.43865 188.49151,270.51105 278.61545,324.1748 c 74.23328,44.20176 172.79993,33.20243 213.86611,11.4493 41.43747,-21.9498 184.33473,-102.8208 307.33753,-9.16787 164.90339,125.55557 294.16221,-18.15369 294.16221,-18.15369"
         id="path210"
         sodipodi:nodetypes="csssc" />
      <path
         style="fill:#000000;fill-opacity:0;stroke:#40940f;stroke-width:1.828;stroke-dasharray:none;stroke-opacity:0"
         d="m -15.123675,175.09339 c 59.349443,-73.16761 193.611525,-38.09521 283.735465,15.56854 74.23328,44.20176 172.79993,33.20243 213.86611,11.4493 41.43747,-21.9498 184.33473,-102.820804 307.33753,-9.16787 164.90339,125.55557 294.16227,-18.15369 294.16227,-18.15369"
         id="path211"
         sodipodi:nodetypes="csssc" />
      <path
         style="fill:#000000;fill-opacity:0;stroke:#000000;stroke-width:1.428;stroke-dasharray:none;stroke-opacity:0"
         d="M -19.613803,41.886258 C 39.73564,-31.281352 173.99772,3.7910476 264.12166,57.454798 c 74.23328,44.201762 172.79993,33.20243 213.86611,11.4493 41.43747,-21.9498 184.33473,-102.820804 307.33753,-9.16787 164.90339,125.555572 294.1623,-18.15369 294.1623,-18.15369"
         id="path212"
         sodipodi:nodetypes="csssc" />
      <path
         style="fill:#000000;fill-opacity:0;stroke:#40940f;stroke-width:1.828;stroke-dasharray:none;stroke-opacity:0"
         d="M -5.1200196,308.60626 C 54.229423,235.43865 188.49151,270.51105 278.61545,324.1748 c 74.23328,44.20176 172.79993,33.20243 213.86611,11.4493 41.43747,-21.9498 184.33473,-102.8208 307.33753,-9.16787 164.90339,125.55557 294.16221,-18.15369 294.16221,-18.15369"
         id="path213"
         sodipodi:nodetypes="csssc" />
      <path
         style="fill:#000000;fill-opacity:0;stroke:#40940f;stroke-width:1.828;stroke-dasharray:none;stroke-opacity:0"
         d="m -15.123675,175.09339 c 59.349443,-73.16761 193.611525,-38.09521 283.735465,15.56854 74.23328,44.20176 172.79993,33.20243 213.86611,11.4493 41.43747,-21.9498 184.33473,-102.820804 307.33753,-9.16787 164.90339,125.55557 294.16227,-18.15369 294.16227,-18.15369"
         id="path214"
         sodipodi:nodetypes="csssc" />
      <path
         style="fill:#000000;fill-opacity:0;stroke:#000000;stroke-width:1.428;stroke-dasharray:none;stroke-opacity:0"
         d="M -19.613803,41.886258 C 39.73564,-31.281352 173.99772,3.7910476 264.12166,57.454798 c 74.23328,44.201762 172.79993,33.20243 213.86611,11.4493 41.43747,-21.9498 184.33473,-102.820804 307.33753,-9.16787 164.90339,125.555572 294.1623,-18.15369 294.1623,-18.15369"
         id="path215"
         sodipodi:nodetypes="csssc" />
      <path
         style="fill:#000000;fill-opacity:0;stroke:#40940f;stroke-width:1.828;stroke-dasharray:none;stroke-opacity:0"
         d="M -5.1200196,308.60626 C 54.229423,235.43865 188.49151,270.51105 278.61545,324.1748 c 74.23328,44.20176 172.79993,33.20243 213.86611,11.4493 41.43747,-21.9498 184.33473,-102.8208 307.33753,-9.16787 164.90339,125.55557 294.16221,-18.15369 294.16221,-18.15369"
         id="path216"
         sodipodi:nodetypes="csssc" />
      <path
         style="fill:#000000;fill-opacity:0;stroke:#40940f;stroke-width:1.828;stroke-dasharray:none;stroke-opacity:0"
         d="m -15.123675,175.09339 c 59.349443,-73.16761 193.611525,-38.09521 283.735465,15.56854 74.23328,44.20176 172.79993,33.20243 213.86611,11.4493 41.43747,-21.9498 184.33473,-102.820804 307.33753,-9.16787 164.90339,125.55557 294.16227,-18.15369 294.16227,-18.15369"
         id="path217"
         sodipodi:nodetypes="csssc" />
      <path
         style="fill:#000000;fill-opacity:0;stroke:#000000;stroke-width:1.428;stroke-dasharray:none;stroke-opacity:0"
         d="M -19.613803,41.886258 C 39.73564,-31.281352 173.99772,3.7910476 264.12166,57.454798 c 74.23328,44.201762 172.79993,33.20243 213.86611,11.4493 41.43747,-21.9498 184.33473,-102.820804 307.33753,-9.16787 164.90339,125.555572 294.1623,-18.15369 294.1623,-18.15369"
         id="path218"
         sodipodi:nodetypes="csssc" />
      <path
         style="fill:#e8c897;fill-opacity:1;stroke:#220022;stroke-width:9.95917;stroke-dasharray:none;stroke-opacity:0"
         d="m 1223.0045,426.03553 c -67.6425,-9.9388 -134.1128,-39.95957 -196.1077,-88.57052 -64.63935,-50.68473 -104.65434,-72.25471 -162.1352,-87.39845 -34.57065,-9.10794 -51.28211,-10.98808 -97.94688,-11.01978 -36.98321,-0.0252 -45.0859,0.40444 -63.88061,3.38677 -80.59262,12.7883 -156.05422,41.05295 -245.10665,91.80634 -44.6835,25.46635 -71.33837,34.75787 -124.28919,43.32547 -26.95508,4.3614 -87.22179,5.49437 -116.18806,2.18416 C 149.50531,371.99647 98.559179,354.74977 44.408097,321.20376 -55.535452,259.28981 -151.89847,222.40289 -244.8579,210.47528 c -23.00922,-2.95232 -71.69188,-3.38221 -90.2659,-0.79709 -48.57049,6.76001 -89.44237,23.67938 -118.38722,49.00771 l -5.902,5.16457 V 130.12329 -3.6039495 l 13.01654,-9.2747205 c 38.28579,-27.279914 85.23977,-40.63562 142.97392,-40.667866 100.06104,-0.0559 215.793448,38.502948 334.222847,111.353811 27.371995,16.837651 45.56877,26.068717 70.041613,35.53158 78.55331,30.373925 177.96128,36.176575 263.986,15.409365 32.81339,-7.92146 51.23419,-15.612625 88.73215,-37.048042 91.52873,-52.321727 174.23104,-82.117116 257.012,-92.594476 22.59261,-2.859501 79.09246,-2.391135 100.68114,0.834612 25.44667,3.802196 47.59702,9.153399 69.86059,16.8772887 47.3442,16.4252173 77.22998,33.9205013 134.67332,78.8387433 61.953,48.444444 125.1435,77.138634 195.4135,88.735204 23.984,3.95807 73.2948,3.59334 99.2924,-0.73447 46.2456,-7.69841 90.1954,-23.81477 131.7895,-48.32712 35.6937,-21.035095 68.7445,-46.483612 92.8339,-71.48108 l 7.985,-8.286027 V 169.65203 303.74119 l -9.3738,8.91283 c -61.3717,58.35394 -133.3007,96.53644 -209.6871,111.30962 -21.0438,4.06988 -79.3062,5.26465 -101.036,2.07189 z"
         id="path219" />
      <path
         style="fill:#e6d798;fill-opacity:1;stroke:#40940f;stroke-width:7.6404;stroke-dasharray:none;stroke-opacity:0"
         d="m 1130.4399,504.80413 c -1.8793,-0.28099 -7.5906,-1.12239 -12.6916,-1.86983 -45.901,-6.72556 -94.0376,-32.58214 -140.58388,-75.51489 -6.7119,-6.19082 -15.098,-13.91085 -18.6357,-17.15558 -3.5376,-3.24472 -10.7865,-9.27354 -16.1085,-13.39732 -95.24004,-73.79752 -211.47021,-68.22888 -343.96813,16.47962 -10.19315,6.51665 -23.49779,15.21515 -29.56588,19.32997 -23.66227,16.04567 -53.03176,26.39279 -90.11134,31.74706 -16.06942,2.32044 -56.56841,1.95032 -73.70891,-0.67363 -46.60328,-7.1342 -80.21366,-21.48768 -122.03465,-52.11546 -28.86875,-21.14213 -48.87877,-33.58706 -78.18279,-48.62461 -96.62866,-49.58571 -185.79272,-56.53947 -243.988678,-19.02829 -9.991467,6.44013 -23.417679,18.67779 -31.742196,28.93214 l -8.28518,10.20586 V 266.06848 149.01783 l 6.651806,-6.48861 c 27.44765,-26.77413 59.256816,-39.71625 101.410508,-41.26058 21.31256,-0.78084 39.78922,0.84782 60.56994,5.339 59.65547,12.8929 118.8148,41.3752 181.85129,87.55238 19.24282,14.0963 32.03534,21.82444 49.24007,29.74664 55.22389,25.42872 125.10888,30.28661 185.58531,12.90056 23.06824,-6.63178 36.01823,-13.07072 62.37974,-31.01623 64.34584,-43.80314 122.48651,-68.7475 180.68253,-77.51902 15.88296,-2.39394 55.60299,-2.00183 70.78009,0.69872 17.88929,3.18318 33.46128,7.66311 49.11278,14.12946 33.28358,13.75104 54.29359,28.39787 94.67709,66.00294 43.55358,40.5571 87.97738,64.57957 137.37808,74.28809 16.8609,3.31365 51.527,3.0083 69.8036,-0.61492 53.3951,-10.58502 104.1389,-41.23408 149.1263,-90.07174 l 8.5426,-9.27348 V 299.3839 415.3368 l -8.0542,8.21547 c -40.4476,41.25723 -90.8016,69.7287 -139.5556,78.90828 -9.6935,1.82517 -43.5484,3.39396 -50.5745,2.34358 z"
         id="path220" />
      <path
         style="fill:#8cf3df;fill-opacity:1;stroke:#40940f;stroke-width:8.37571;stroke-dasharray:none;stroke-opacity:0"
         d="M 1030.7458,661.83978 C 979.57642,652.5471 929.29397,624.47792 882.39718,579.0271 833.49972,531.63732 803.22976,511.46961 759.74756,497.31032 c -26.15155,-8.51583 -38.79317,-10.27379 -74.0934,-10.30341 -27.97646,-0.0232 -34.10587,0.37818 -48.32338,3.16662 -60.96549,11.95694 -118.04956,38.38414 -185.41456,85.83813 -33.8015,23.81078 -53.96495,32.49828 -94.02038,40.50891 -20.39059,4.07787 -65.98017,5.1372 -87.89217,2.04219 -51.32228,-7.24907 -89.86122,-23.3746 -130.82459,-54.73981 C 63.575307,505.93398 -9.3199304,471.44501 -79.64046,460.2928 c -17.4057,-2.76036 -54.23238,-3.1623 -68.28298,-0.74524 -42.62113,7.33192 -74.83548,26.08387 -100.34239,58.40929 l -9.43563,11.95794 V 406.84961 283.78436 l 9.9099,-12.76721 c 40.65179,-52.37307 102.83785,-70.73579 183.00692,-54.03953 61.1156196,12.72812 129.079927,45.92943 192.09413,93.84008 34.40952,26.16208 57.25181,38.91087 88.24259,49.25005 29.71897,9.91488 57.12022,14.22091 90.34365,14.19715 53.1315,-0.0382 98.8526,-12.7345 134.99021,-37.48597 52.71012,-36.10252 77.26646,-50.73763 109.25276,-65.1126 35.32509,-15.87542 65.33736,-24.98479 97.70861,-29.65645 20.20088,-2.91535 64.84732,-2.15046 81.21705,1.39137 50.28249,10.87931 91.48637,33.16628 130.44878,70.55889 23.30441,22.36554 31.19673,29.62824 41.85487,38.51617 38.32651,31.96077 79.12011,52.77928 121.00399,61.75297 14.3136,3.06668 50.5028,4.24193 66.2493,2.15151 52.8927,-7.02182 108.4113,-36.84818 154.8429,-83.18589 5.4835,-5.47268 10.8017,-10.77295 11.818,-11.77834 1.7601,-1.7411 1.8479,4.03466 1.8479,121.31892 v 123.14699 l -9.7172,10.00971 c -42.271,43.54348 -89.6263,71.91219 -140.2372,84.01037 -15.9187,3.80529 -59.992,4.92239 -76.4299,1.93723 z"
         id="path221" />
      <path
         style="fill:#91d0ee;fill-opacity:1;stroke:#91d0ee;stroke-width:8.37571;stroke-dasharray:none;stroke-opacity:0"
         d="m 1144.4957,775.58969 c -51.1694,-9.29268 -101.4518,-37.36186 -148.34861,-82.81268 -48.89746,-47.38978 -79.16742,-67.55749 -122.64962,-81.71678 -26.15155,-8.51583 -38.79317,-10.27379 -74.0934,-10.30341 -27.97646,-0.0232 -34.10587,0.37818 -48.32338,3.16662 -60.96549,11.95694 -118.04956,38.38414 -185.41456,85.83813 -33.8015,23.81078 -53.96495,32.49828 -94.02038,40.50891 -20.39059,4.07787 -65.98017,5.1372 -87.89217,2.04219 C 332.4313,725.0636 293.89236,708.93807 252.92899,677.57286 177.32522,619.68389 104.42998,585.19492 34.10945,574.04271 c -17.4057,-2.76036 -54.23238,-3.1623 -68.28298,-0.74524 -42.62113,7.33192 -74.83548,26.08387 -100.34239,58.40929 l -9.43563,11.95794 V 520.59952 397.53427 l 9.9099,-12.76721 c 40.65179,-52.37307 102.83785,-70.73579 183.00692,-54.03953 61.11562,12.72812 129.07993,45.92943 192.09413,93.84008 34.40952,26.16208 57.25181,38.91087 88.24259,49.25005 29.71897,9.91488 57.12022,14.22091 90.34365,14.19715 53.1315,-0.0382 98.8526,-12.7345 134.99021,-37.48597 52.71012,-36.10252 77.26646,-50.73763 109.25276,-65.1126 35.32509,-15.87542 65.33736,-24.98479 97.70861,-29.65645 20.20088,-2.91535 64.84732,-2.15046 81.21705,1.39137 50.28249,10.87931 91.48637,33.16628 130.44878,70.55889 23.30441,22.36554 31.19675,29.62824 41.85485,38.51617 38.3265,31.96077 79.1201,52.77928 121.004,61.75297 14.3136,3.06668 50.5028,4.24193 66.2493,2.15151 52.8927,-7.02182 108.4113,-36.84818 154.8429,-83.18589 5.4835,-5.47268 10.8017,-10.77295 11.818,-11.77834 1.7601,-1.7411 1.8479,4.03466 1.8479,121.31892 v 123.14699 l -9.7172,10.00971 c -42.271,43.54348 -89.6263,71.91219 -140.2372,84.01037 -15.9187,3.80529 -59.992,4.92239 -76.4299,1.93723 z"
         id="path222" />
    </g>
  </g>
</svg>
